<svg width="24" height="24" viewBox="0 0 24 24" fill="none" xmlns="http://www.w3.org/2000/svg">
<path d="M12 23C12.8284 23 13.5 22.3284 13.5 21.5C13.5 20.6716 12.8284 20 12 20C11.1716 20 10.5 20.6716 10.5 21.5C10.5 22.3284 11.1716 23 12 23Z" fill="#141517"/>
<path d="M20.75 17H19.5V9.5C19.5 5.4 16.1 2 12 2C7.9 2 4.5 5.4 4.5 9.5V17H3.25C3.1 17 3 17.1 3 17.25V18.25C3 18.4 3.1 18.5 3.25 18.5H20.75C20.9 18.5 21 18.4 21 18.25V17.25C21 17.1 20.9 17 20.75 17ZM6 9.5C6 6.2 8.7 3.5 12 3.5C15.3 3.5 18 6.2 18 9.5V17H6V9.5Z" fill="#141517"/>
</svg>
