<svg width="20" height="20" viewBox="0 0 20 20" fill="none" xmlns="http://www.w3.org/2000/svg">
<path d="M6.25016 11.0418C6.82546 11.0418 7.29183 10.5755 7.29183 10.0002C7.29183 9.42487 6.82546 8.9585 6.25016 8.9585C5.67487 8.9585 5.2085 9.42487 5.2085 10.0002C5.2085 10.5755 5.67487 11.0418 6.25016 11.0418Z" fill="#141517"/>
<path d="M13.7502 11.0418C14.3255 11.0418 14.7918 10.5755 14.7918 10.0002C14.7918 9.42487 14.3255 8.9585 13.7502 8.9585C13.1749 8.9585 12.7085 9.42487 12.7085 10.0002C12.7085 10.5755 13.1749 11.0418 13.7502 11.0418Z" fill="#141517"/>
<path d="M10.0002 11.0418C10.5755 11.0418 11.0418 10.5755 11.0418 10.0002C11.0418 9.42487 10.5755 8.9585 10.0002 8.9585C9.42487 8.9585 8.9585 9.42487 8.9585 10.0002C8.9585 10.5755 9.42487 11.0418 10.0002 11.0418Z" fill="#141517"/>
<path d="M17.0835 14.4168C18.0418 12.9168 18.5001 11.0835 18.2918 9.08345C17.8751 5.20845 14.7085 2.08345 10.8335 1.70845C5.58345 1.20845 1.20845 5.58345 1.70845 10.8335C2.08345 14.7085 5.20845 17.8751 9.08345 18.2918C11.0418 18.5001 12.8751 18.0001 14.4168 17.0835C14.5001 17.0418 14.5418 17.0001 14.6251 17.0001H16.7918C16.9168 17.0001 17.0001 16.9168 17.0001 16.7918V14.6251C17.0001 14.5418 17.0418 14.4585 17.0835 14.4168ZM2.91679 10.0001C2.91679 6.08345 6.08345 2.91679 10.0001 2.91679C13.9168 2.91679 17.0835 6.08345 17.0835 10.0001C17.0835 13.9168 13.9168 17.0835 10.0001 17.0835C6.08345 17.0835 2.91679 13.9168 2.91679 10.0001Z" fill="#141517"/>
</svg>
