<svg width="20" height="20" viewBox="0 0 20 20" fill="none" xmlns="http://www.w3.org/2000/svg">
<path d="M15.4165 6.66675L18.2915 1.95841C18.2915 1.91675 18.3332 1.87508 18.3332 1.87508C18.3332 1.79175 18.2498 1.66675 18.1248 1.66675H1.87484C1.74984 1.66675 1.6665 1.75008 1.6665 1.87508V2.58341V11.6667V18.1251C1.6665 18.2501 1.74984 18.3334 1.87484 18.3334H2.70817C2.83317 18.3334 2.9165 18.2501 2.9165 18.1251V11.6667H18.1248C18.2498 11.6667 18.3332 11.5834 18.3332 11.4584C18.3332 11.4167 18.3332 11.3751 18.2915 11.3751L15.4165 6.66675ZM2.9165 10.4167V2.91675H16.2498L14.3332 6.00008L13.9165 6.66675L14.3332 7.33342L16.2498 10.4167H2.9165Z" fill="#141517"/>
</svg>
