<svg width="20" height="20" viewBox="0 0 20 20" fill="none" xmlns="http://www.w3.org/2000/svg">
<path d="M2.9165 9.95825L9.99984 2.87492L17.0832 9.95825V18.1249C17.0832 18.2499 17.1665 18.3333 17.2915 18.3333H18.1248C18.2498 18.3333 18.3332 18.2499 18.3332 18.1249V9.20825C18.3332 9.16659 18.2915 9.08325 18.2915 9.04159L10.1248 0.874919C10.0832 0.833252 10.0415 0.833252 9.99984 0.833252C9.95817 0.833252 9.9165 0.833252 9.87484 0.874919L1.70817 9.04159C1.70817 9.08325 1.6665 9.12492 1.6665 9.20825V18.1249C1.6665 18.2499 1.74984 18.3333 1.87484 18.3333H2.70817C2.83317 18.3333 2.9165 18.2499 2.9165 18.1249V9.95825Z" fill="#141517"/>
<path d="M10.4167 18.3333H9.58333C9.45833 18.3333 9.375 18.2499 9.375 18.1249V13.5416C9.375 13.4166 9.45833 13.3333 9.58333 13.3333H10.4167C10.5417 13.3333 10.625 13.4166 10.625 13.5416V18.1249C10.625 18.2499 10.5417 18.3333 10.4167 18.3333Z" fill="#141517"/>
</svg>
