<svg width="14" height="14" viewBox="0 0 14 14" fill="none" xmlns="http://www.w3.org/2000/svg">
<path d="M12.3376 2.30413C11.6084 1.57497 10.6751 1.1958 9.7126 1.1958C8.7501 1.1958 7.81676 1.57497 7.0876 2.30413C7.05843 2.3333 7.02926 2.36247 7.0001 2.4208C6.97093 2.39163 6.94176 2.3333 6.9126 2.30413C6.18343 1.57497 5.2501 1.1958 4.2876 1.1958C3.3251 1.1958 2.39176 1.57497 1.6626 2.30413C0.204264 3.79163 0.204264 6.1833 1.6626 7.6708L6.88343 12.8041C6.9126 12.8333 6.97093 12.8625 7.0001 12.8625C7.05843 12.8625 7.0876 12.8333 7.11676 12.8041L12.3376 7.6708C13.7668 6.1833 13.7668 3.79163 12.3376 2.30413Z" fill="#F58787"/>
</svg>
