<svg width="14" height="14" viewBox="0 0 14 14" fill="none" xmlns="http://www.w3.org/2000/svg">
<path d="M12.3376 2.30413C11.6084 1.57497 10.6751 1.1958 9.7126 1.1958C8.7501 1.1958 7.81676 1.57497 7.0876 2.30413C7.05843 2.3333 7.02926 2.36247 7.0001 2.4208C6.97093 2.39163 6.94176 2.3333 6.9126 2.30413C6.18343 1.57497 5.2501 1.1958 4.2876 1.1958C3.3251 1.1958 2.39176 1.57497 1.6626 2.30413C0.204264 3.79163 0.204264 6.1833 1.6626 7.6708L6.88343 12.8041C6.9126 12.8333 6.97093 12.8625 7.0001 12.8625C7.05843 12.8625 7.0876 12.8333 7.11676 12.8041L12.3376 7.6708C13.7668 6.1833 13.7668 3.79163 12.3376 2.30413ZM11.7251 7.0583L7.0001 11.6958L2.2751 7.0583C1.16676 5.9208 1.16676 4.05413 2.30426 2.91663C2.82926 2.36247 3.55843 2.0708 4.2876 2.0708C4.84176 2.0708 5.39593 2.30413 5.8626 2.62497C6.27093 2.91663 6.5626 3.23747 6.88343 3.61663C6.9126 3.6458 6.94176 3.67497 7.0001 3.67497C7.02926 3.67497 7.0876 3.6458 7.11676 3.61663C7.4376 3.26663 7.75843 2.91663 8.1376 2.62497C8.60426 2.30413 9.15843 2.0708 9.7126 2.0708C10.4709 2.0708 11.1709 2.36247 11.6959 2.91663C12.8043 4.05413 12.8334 5.9208 11.7251 7.0583Z" fill="#898D97"/>
</svg>
