<svg width="20" height="20" viewBox="0 0 20 20" fill="none" xmlns="http://www.w3.org/2000/svg">
<path d="M9.99984 10.9999C8.2915 10.9999 6.9165 9.62492 6.9165 7.91659C6.9165 6.20825 8.2915 4.83325 9.99984 4.83325C11.7082 4.83325 13.0832 6.20825 13.0832 7.91659C13.0832 9.62492 11.7082 10.9999 9.99984 10.9999ZM9.99984 5.99992C8.95817 5.99992 8.08317 6.87492 8.08317 7.91659C8.08317 8.95825 8.95817 9.83325 9.99984 9.83325C11.0415 9.83325 11.9165 8.95825 11.9165 7.91659C11.9165 6.87492 11.0415 5.99992 9.99984 5.99992Z" fill="#141517"/>
<path d="M10 2.08325C13.4583 2.08325 16.25 4.95825 16.25 8.45825C16.25 11.1249 14.5 12.8749 12.5 14.9166L12.2083 15.2083L10 17.4999L7.79167 15.2499L7.5 14.9583C5.5 12.9166 3.75 11.1666 3.75 8.49992C3.75 4.95825 6.54167 2.08325 10 2.08325ZM10 0.833252C5.875 0.833252 2.5 4.24992 2.5 8.45825C2.5 11.7916 4.75 13.8749 6.91667 16.0832C7.875 17.0832 8.875 18.0833 9.83334 19.0416C9.875 19.0833 9.95833 19.1249 10 19.1249C10.0833 19.1249 10.125 19.0833 10.1667 19.0416C11.125 18.0416 12.125 17.0416 13.0833 16.0832C15.25 13.8749 17.5 11.7499 17.5 8.45825C17.5 4.24992 14.125 0.833252 10 0.833252Z" fill="#141517"/>
</svg>
