<svg width="20" height="20" viewBox="0 0 20 20" fill="none" xmlns="http://www.w3.org/2000/svg">
<path d="M12.4583 9.16675C13.5 8.41675 14.1667 7.20841 14.1667 5.83341C14.1667 3.54175 12.2917 1.66675 10 1.66675C7.70833 1.66675 5.83333 3.54175 5.83333 5.83341C5.83333 7.20841 6.5 8.41675 7.54167 9.16675C4.58333 10.2084 2.5 12.9584 2.5 16.2501V18.1251C2.5 18.2501 2.58333 18.3334 2.70833 18.3334H3.54167C3.66667 18.3334 3.75 18.2501 3.75 18.1251V16.2501C3.75 12.7917 6.54167 10.0001 10 10.0001C13.4583 10.0001 16.25 12.7917 16.25 16.2501V18.1251C16.25 18.2501 16.3333 18.3334 16.4583 18.3334H17.2917C17.4167 18.3334 17.5 18.2501 17.5 18.1251V16.2501C17.5 12.9584 15.4167 10.2084 12.4583 9.16675ZM7.08333 5.83341C7.08333 4.20841 8.375 2.91675 10 2.91675C11.625 2.91675 12.9167 4.20841 12.9167 5.83341C12.9167 7.45842 11.625 8.75008 10 8.75008C8.375 8.75008 7.08333 7.45842 7.08333 5.83341Z" fill="#141517"/>
</svg>
